<?xml version="1.0" standalone="no"?>
<!DOCTYPE svg PUBLIC "-//W3C//DTD SVG 20010904//EN"
 "http://www.w3.org/TR/2001/REC-SVG-20010904/DTD/svg10.dtd">
<svg version="1.0" xmlns="http://www.w3.org/2000/svg"
 width="300.000000pt" height="170.000000pt" viewBox="0 0 300.000000 170.000000"
 preserveAspectRatio="xMidYMid meet">
<metadata>
Created by potrace 1.10, written by Peter Selinger 2001-2011
</metadata>

<g transform="translate(0.000000,170.000000) scale(0.100000,-0.100000)"
fill="#000000" stroke="none">
<path d="M1222 1477 c-18 -7 -47 -24 -66 -39 -103 -82 -82 -255 39 -326 84
-48 221 -6 272 83 68 120 -32 296 -167 294 -25 0 -60 -6 -78 -12z m117 -18
l50 -10 -25 -46 c-13 -25 -24 -62 -24 -81 0 -40 35 -121 56 -129 26 -10 14
-31 -23 -44 -21 -6 -42 -15 -48 -18 -18 -12 -65 -13 -100 -1 -19 6 -35 13 -35
14 0 1 7 24 16 50 20 59 12 121 -23 172 -24 36 -24 38 -6 52 19 15 93 51 105
52 4 0 29 -5 57 -11z m94 -72 c30 -63 39 -124 23 -162 -8 -19 -20 -35 -25 -35
-6 0 -24 19 -41 42 -35 48 -40 112 -13 159 22 38 37 37 56 -4z m-276 -15 c19
-12 43 -78 43 -117 0 -20 -7 -50 -16 -67 -15 -28 -16 -29 -28 -12 -21 32 -36
97 -32 134 2 19 5 43 5 53 1 18 9 21 28 9z"/>
<path d="M2263 1463 c-18 -2 -38 -14 -46 -26 l-14 -22 141 0 c110 0 149 -4
176 -17 19 -9 48 -19 63 -22 16 -4 38 -15 49 -26 12 -11 25 -17 29 -14 4 2 11
-1 16 -8 4 -7 17 -18 28 -24 11 -7 19 -19 19 -28 -1 -9 6 -16 16 -16 15 0 37
-28 28 -35 -12 -9 -67 -22 -72 -18 -11 11 -6 43 7 44 6 0 3 4 -8 8 -11 5 -22
5 -25 0 -3 -4 -17 -12 -32 -18 -23 -9 -28 -7 -33 10 -4 11 -5 22 -3 23 1 1 15
7 31 14 20 9 27 9 27 0 0 -6 3 -9 6 -5 4 3 3 14 0 24 -5 11 -10 13 -14 7 -4
-6 -19 -14 -34 -18 -27 -6 -34 2 -30 36 1 3 -6 12 -15 20 -12 9 -15 9 -9 0 5
-8 -2 -16 -19 -22 -31 -12 -45 -6 -45 19 0 23 -10 33 -24 22 -6 -4 -21 -11
-34 -14 -17 -4 -23 0 -28 19 -3 13 -14 24 -23 24 -12 0 -13 -2 -3 -9 7 -4 19
-28 27 -54 13 -45 13 -45 -11 -51 -46 -12 -64 26 -21 45 20 9 20 9 -5 4 -23
-4 -29 -1 -34 20 -3 14 -10 25 -15 25 -6 0 -5 -8 1 -19 15 -30 12 -38 -17 -45
-17 -5 -29 -3 -34 6 -13 20 -11 26 12 33 11 4 18 9 15 12 -3 3 -26 -2 -52 -11
-62 -21 -61 -21 -68 19 -4 19 -11 35 -15 35 -5 0 -3 -17 4 -37 l13 -38 -51
-17 c-29 -10 -62 -20 -74 -22 -12 -3 -30 -10 -40 -16 -16 -10 -16 -11 5 -7 14
3 26 -1 32 -11 9 -15 10 -15 8 2 -2 15 9 23 52 38 30 10 60 16 67 13 21 -7 15
-35 -9 -46 -21 -9 -21 -9 4 -4 21 4 28 1 33 -16 8 -25 7 -26 -27 -34 -25 -6
-28 -4 -39 37 -10 32 -14 38 -17 21 -2 -15 -13 -24 -34 -28 -17 -4 -75 -22
-129 -40 -96 -32 -99 -32 -105 -13 -10 32 47 56 59 26 3 -8 6 -6 6 5 1 26 43
39 59 19 11 -15 12 -15 10 3 -4 23 -14 26 -46 14 -13 -5 -27 -7 -32 -4 -5 3
-10 0 -12 -5 -4 -14 -60 -18 -64 -5 -4 11 93 75 113 75 6 0 13 -6 16 -12 2 -7
2 -2 0 10 -2 13 1 30 8 38 25 30 -2 24 -70 -16 -98 -57 -180 -127 -248 -213
-31 -39 -82 -103 -113 -142 -84 -106 -208 -233 -275 -280 -33 -24 -99 -62
-147 -86 -48 -24 -85 -46 -82 -51 9 -15 136 46 234 113 53 35 161 142 283 279
32 36 55 58 51 50 -6 -12 -4 -13 6 -3 8 7 15 23 17 35 4 27 9 32 23 23 8 -5 5
-12 -7 -22 -17 -14 -17 -14 0 -9 10 3 23 6 29 6 6 0 4 8 -6 19 -15 16 -15 19
-1 31 8 7 15 18 15 25 0 14 78 80 85 73 3 -3 11 -26 19 -51 l14 -47 -26 -7
c-15 -4 -30 -7 -34 -8 -11 0 -10 -13 2 -33 10 -16 10 -16 8 2 -3 16 14 24 94
51 95 32 98 32 104 12 4 -12 1 -23 -7 -28 -21 -13 -49 -11 -50 4 0 6 -4 3 -8
-8 -7 -15 -36 -29 -118 -54 -119 -36 -158 -53 -108 -49 24 2 30 -1 30 -16 0
-14 -14 -24 -54 -38 -58 -19 -71 -18 -51 6 6 9 10 21 7 28 -6 16 -27 -35 -27
-65 0 -18 -2 -19 -10 -7 -8 13 -11 13 -27 -2 -11 -12 -13 -18 -5 -18 8 0 10
-8 6 -25 -8 -32 5 -137 16 -130 4 3 6 -3 3 -14 -9 -34 86 -189 108 -175 5 3 9
0 9 -6 0 -12 -16 -9 -105 14 -33 8 -90 18 -127 22 l-66 7 -16 -32 -17 -31 39
0 c61 0 212 -29 350 -67 283 -77 283 -77 301 -66 12 8 23 8 36 1 29 -17 187
-10 288 12 348 75 589 363 548 654 -14 98 -66 202 -140 277 -47 48 -64 60 -81
56 -16 -4 -20 -2 -16 9 7 17 -70 58 -149 79 -60 15 -201 26 -252 18z m230
-124 c4 -15 -1 -23 -20 -30 -29 -11 -43 -5 -43 21 0 11 9 20 23 23 12 2 25 5
28 6 4 0 9 -8 12 -20z m-223 -26 c0 -19 -50 -29 -61 -12 -14 22 -11 27 19 37
27 9 42 1 42 -25z m299 -34 c-23 -15 -46 -10 -52 11 -7 29 44 45 57 18 7 -14
6 -22 -5 -29z m-219 27 c0 -2 3 -11 6 -19 3 -10 -5 -18 -25 -25 -24 -8 -31 -8
-35 5 -10 24 -7 31 12 36 24 7 42 8 42 3z m160 -27 c0 -11 -10 -24 -22 -29
-21 -9 -21 -9 7 -7 21 1 30 -3 33 -15 5 -23 -47 -45 -60 -26 -6 10 -8 9 -8 -3
0 -22 -50 -35 -61 -17 -7 10 -9 9 -9 -3 0 -32 -55 -39 -63 -9 -4 15 1 22 21
27 27 7 37 10 49 12 4 0 2 6 -5 13 -25 25 -12 43 46 64 63 22 72 22 72 -7z
m-230 7 c0 -2 3 -11 6 -20 8 -21 -45 -43 -58 -24 -13 21 -9 36 10 41 24 7 42
8 42 3z m310 -20 c0 -2 3 -11 6 -20 4 -11 -2 -19 -17 -26 -24 -10 -23 -10 2
-5 21 4 28 0 32 -17 7 -27 6 -28 -28 -31 -24 -2 -29 3 -41 43 -8 25 -14 46
-14 47 0 2 32 10 48 12 6 0 12 -1 12 -3z m-217 -27 c4 -15 -1 -23 -20 -30 -29
-11 -43 -5 -43 21 0 11 9 20 23 23 12 2 25 5 28 6 4 0 9 -8 12 -20z m-535 -14
c-3 -3 -21 -10 -39 -15 l-34 -9 30 24 c19 16 33 21 39 15 5 -5 7 -12 4 -15z
m301 -26 c-20 -13 -49 -11 -50 4 0 6 -4 3 -8 -8 -5 -12 -3 -25 6 -33 20 -20
16 -31 -14 -43 -20 -7 -28 -6 -35 3 -13 21 -9 36 10 41 13 4 12 5 -4 6 -44 2
-37 50 7 51 9 0 32 6 50 14 32 14 35 13 43 -5 7 -15 6 -23 -5 -30z m164 21 c6
-23 -25 -45 -49 -36 -22 8 -17 36 9 46 32 13 34 12 40 -10z m380 -1 c4 -15 -1
-23 -20 -30 -29 -11 -43 -5 -43 21 0 11 9 20 23 23 12 2 25 5 28 6 4 0 9 -8
12 -20z m-444 -41 c1 -3 -12 -11 -28 -16 -24 -8 -31 -7 -35 5 -10 25 -7 31 22
41 26 9 38 0 41 -30z m559 22 c11 -18 9 -21 -13 -30 -14 -5 -37 -13 -50 -16
-25 -6 -26 -5 -25 34 0 6 50 28 70 31 3 1 11 -8 18 -19z m-945 -11 c4 -15 -1
-23 -20 -30 -20 -7 -29 -6 -35 3 -13 21 -9 36 10 41 33 9 40 7 45 -14z m152
-13 c0 -14 -14 -24 -50 -37 -64 -22 -73 -23 -78 -1 -4 13 -5 13 -6 -4 -1 -13
-10 -24 -23 -28 -33 -8 -35 -8 -41 13 -4 17 5 23 57 41 58 19 62 20 75 3 13
-17 13 -17 8 -1 -4 11 1 21 11 28 25 14 47 8 47 -14z m538 2 c7 -25 -8 -39
-38 -36 -29 4 -31 36 -3 47 33 14 35 13 41 -11z m-379 -4 c3 -9 4 -20 0 -25
-3 -5 -1 -9 4 -9 5 0 12 -9 15 -21 4 -15 -1 -23 -20 -30 -13 -5 -29 -7 -34 -3
-15 9 -10 32 9 44 16 11 15 11 -2 5 -19 -6 -36 9 -36 32 0 11 18 19 46 22 7 0
15 -6 18 -15z m536 -14 c0 -32 -55 -42 -63 -10 -4 14 2 21 22 28 31 11 41 7
41 -18z m-377 1 c4 -15 -2 -22 -23 -30 -31 -10 -40 -6 -40 20 0 31 55 40 63
10z m151 -7 c3 -9 4 -20 0 -25 -3 -5 -1 -9 4 -9 5 0 12 -9 15 -21 4 -15 -1
-23 -20 -30 -13 -5 -29 -7 -34 -3 -13 8 -11 42 4 47 6 2 4 3 -5 2 -10 -2 -18
2 -19 8 0 8 -3 7 -6 -1 -8 -21 -55 -35 -65 -20 -6 10 -8 9 -8 -3 0 -9 -10 -19
-22 -23 -33 -9 -35 -8 -41 15 -4 15 1 23 20 30 13 5 28 7 33 4 5 -3 10 0 12 5
2 6 17 12 33 13 17 1 36 8 43 15 19 17 49 15 56 -4z m361 -30 c9 -25 16 -47
14 -49 -2 -2 -24 -10 -49 -19 -34 -12 -46 -12 -52 -3 -15 24 -7 36 27 43 19 3
38 10 41 15 7 12 -6 11 -46 -2 -26 -9 -34 -9 -41 2 -5 8 -9 17 -9 21 0 5 65
31 91 37 4 0 14 -20 24 -45z m-582 15 c5 -20 -1 -25 -38 -31 -27 -4 -34 38 -8
45 34 9 41 7 46 -14z m380 2 c4 -15 -2 -22 -23 -30 -31 -10 -40 -6 -40 20 0
31 55 40 63 10z m-609 -7 c10 -26 7 -32 -21 -38 -17 -5 -29 -3 -34 6 -13 20
-11 28 14 38 31 12 34 12 41 -6z m537 -9 c3 -28 4 -33 12 -41 15 -15 6 -42
-15 -48 -33 -9 -35 -8 -41 15 -4 14 1 23 16 30 21 8 21 9 -3 6 -19 -1 -26 3
-28 20 -2 14 3 23 15 26 34 9 43 7 44 -8z m157 -18 c2 -11 -6 -21 -24 -27 -30
-12 -29 -12 -38 17 -5 16 -2 23 11 26 30 8 48 3 51 -16z m-605 -9 c8 -27 6
-28 -29 -31 -37 -3 -46 29 -12 42 33 14 35 13 41 -11z m157 -17 c0 -11 -10
-21 -22 -25 -33 -8 -35 -8 -41 14 -4 14 2 21 22 28 31 11 41 7 41 -17z m386
-16 c18 -52 18 -52 -13 -59 -17 -5 -29 -3 -34 6 -13 19 -11 24 14 37 21 11 21
11 -4 6 -36 -7 -49 32 -16 45 32 13 38 9 53 -35z m-233 13 c7 -27 9 -26 -28
-30 -38 -4 -48 27 -13 41 33 14 35 13 41 -11z m-383 8 c0 -2 3 -11 6 -19 3
-10 -5 -18 -25 -25 -26 -9 -31 -8 -37 10 -4 13 -1 24 7 29 14 9 49 12 49 5z
m160 -25 c0 -10 -10 -23 -22 -30 -22 -11 -22 -11 4 -6 24 4 28 1 42 -42 9 -26
16 -48 16 -49 0 -1 -12 -5 -27 -8 -17 -5 -29 -3 -34 6 -13 19 -11 24 14 37
l22 11 -24 -6 c-15 -4 -27 -1 -32 7 -7 11 -9 10 -9 -3 0 -10 -3 -18 -7 -18 -5
0 -18 -3 -29 -6 -31 -8 -41 34 -11 47 21 8 21 9 -3 6 -19 -1 -26 3 -28 19 -3
18 6 24 55 41 64 21 73 20 73 -6z m159 -23 c1 -3 -12 -11 -28 -16 -24 -8 -31
-7 -35 5 -10 25 -7 31 22 41 26 9 38 0 41 -30z m375 26 c10 -26 7 -31 -21 -37
-43 -8 -59 27 -20 43 31 12 34 12 41 -6z m-764 2 c0 -2 3 -11 6 -20 8 -21 -45
-43 -58 -24 -13 21 -9 36 10 41 24 7 42 8 42 3z m539 -18 c6 -17 4 -25 -8 -30
-29 -12 -49 -8 -54 12 -4 17 9 28 51 39 1 1 6 -9 11 -21z m351 -3 c0 -26 -3
-30 -40 -42 -50 -18 -62 -16 -58 9 5 32 98 64 98 33z m-956 -11 c3 -9 6 -19 6
-24 0 -13 -54 -19 -62 -7 -5 8 -8 6 -8 -4 0 -22 -50 -35 -61 -17 -7 10 -9 9
-9 -3 0 -9 -10 -21 -22 -27 -22 -11 -22 -11 3 -6 24 5 28 1 42 -43 12 -36 13
-49 4 -55 -8 -5 -7 -8 4 -8 9 0 19 -9 22 -19 4 -15 -2 -22 -23 -30 -16 -5 -31
-7 -34 -4 -11 11 -6 43 7 44 6 0 2 4 -10 9 -13 5 -23 16 -23 25 0 9 10 20 23
26 20 9 20 9 -5 4 -25 -5 -28 -1 -41 42 -14 51 -11 59 29 66 11 2 26 7 34 10
8 4 24 8 35 10 11 2 31 9 45 15 34 15 37 14 44 -4z m380 0 c7 -19 9 -17 -22
-33 -27 -14 -27 -14 -36 16 -5 16 -2 23 11 26 33 9 41 7 47 -9z m-221 -15 c4
-15 -1 -23 -20 -30 -13 -5 -29 -7 -34 -3 -16 9 -10 42 9 47 33 9 40 7 45 -14z
m380 2 c4 -15 -2 -22 -23 -30 -31 -10 -40 -6 -40 20 0 31 55 40 63 10z m157
-17 c0 -6 -10 -16 -22 -23 l-23 -11 24 6 c15 4 27 1 32 -7 7 -11 9 -11 9 2 0
22 50 35 61 17 7 -10 9 -9 9 3 0 32 55 40 63 9 5 -19 -4 -26 -52 -35 -11 -2
-29 -9 -38 -15 -16 -9 -15 -10 7 -8 28 3 42 -28 18 -43 -23 -15 15 -11 55 6
34 14 36 14 42 -6 11 -32 -46 -57 -58 -26 -3 7 -6 5 -6 -6 -1 -10 -11 -22 -23
-28 -22 -9 -21 -9 3 -4 24 4 28 1 42 -42 12 -36 13 -49 4 -55 -15 -10 4 -11
27 -2 15 6 15 7 0 19 -24 17 -11 42 25 50 28 6 29 8 19 31 -12 26 0 43 30 44
13 0 17 -32 5 -44 -4 -4 -8 -15 -8 -24 0 -9 -6 -16 -13 -14 -9 2 -11 -4 -7
-18 5 -15 2 -20 -12 -21 -10 0 -13 -3 -5 -6 15 -6 15 -13 -4 -38 -13 -17 -16
-18 -25 -5 -10 13 -10 13 -6 -1 3 -8 -1 -30 -9 -48 -10 -24 -18 -31 -30 -27
-12 4 -15 2 -10 -9 3 -10 -3 -17 -20 -21 -14 -4 -21 -9 -16 -13 6 -3 -8 -21
-30 -40 -32 -27 -42 -31 -49 -20 -7 11 -9 11 -9 -3 0 -19 -39 -50 -52 -42 -4
3 -8 1 -8 -4 0 -8 -50 -36 -55 -30 -1 2 -7 17 -13 35 -9 28 -8 32 11 37 33 9
45 7 50 -6 2 -7 3 -5 1 5 -2 15 7 20 56 32 3 1 18 7 33 13 16 7 33 10 38 6 12
-7 11 8 -1 40 -10 27 -1 33 69 45 3 1 0 6 -7 13 -13 13 -16 44 -4 51 4 2 2 2
-5 1 -14 -3 -27 31 -18 46 3 5 2 10 -4 10 -6 0 -15 18 -21 40 -6 22 -13 40
-16 40 -4 0 -4 -6 -1 -14 4 -11 -11 -20 -56 -35 -75 -26 -73 -26 -80 0 -8 30
42 48 61 22 13 -17 13 -17 10 1 -2 15 7 22 42 34 25 8 40 17 34 19 -6 2 -43
-7 -82 -21 -71 -24 -71 -24 -78 -4 -4 13 -1 24 7 29 21 13 49 11 50 -3 0 -7 4
-4 8 7 5 11 5 22 0 25 -8 6 -42 92 -37 95 44 24 67 20 68 -11z m-607 -6 c8
-27 6 -28 -29 -31 -37 -3 -46 29 -12 42 33 14 35 13 41 -11z m380 1 c4 -15 -1
-23 -20 -30 -13 -5 -29 -7 -34 -3 -16 9 -10 42 9 47 33 9 40 7 45 -14z m163
-34 c18 -53 18 -52 -13 -59 -17 -5 -29 -3 -34 6 -13 20 -11 28 14 39 20 9 20
9 -5 4 -16 -3 -28 -1 -28 4 0 5 -3 16 -6 24 -3 10 2 17 13 20 34 9 45 2 59
-38z m-233 13 c8 -27 6 -28 -29 -31 -37 -3 -46 29 -12 42 33 14 35 13 41 -11z
m565 1 c-2 -14 -15 -25 -41 -34 -33 -11 -38 -11 -47 4 -8 14 -9 13 -10 -5 0
-15 -8 -24 -26 -28 -30 -8 -31 -8 -36 18 -2 15 9 23 62 42 85 29 102 30 98 3z
m-948 7 c0 -2 3 -11 6 -19 3 -10 -5 -18 -25 -25 -26 -9 -31 -8 -37 10 -4 13
-1 24 7 29 14 9 49 12 49 5z m160 -26 c0 -32 -55 -42 -63 -10 -4 14 2 21 22
28 31 11 41 7 41 -18z m378 2 c2 -12 0 -22 -5 -22 -4 0 -18 -3 -29 -6 -31 -8
-41 34 -11 46 30 12 41 7 45 -18z m-608 4 c0 -2 3 -11 6 -20 4 -11 -2 -19 -17
-26 -24 -10 -23 -10 2 -5 21 4 28 0 32 -16 4 -13 0 -22 -10 -26 -13 -5 -12 -8
7 -15 16 -6 21 -14 17 -28 -3 -11 -1 -20 3 -20 6 0 40 -81 40 -96 0 -1 -12 -5
-27 -8 -17 -5 -29 -3 -34 6 -13 19 -11 24 14 37 21 11 21 11 -5 6 -25 -5 -28
-1 -40 42 -8 28 -10 50 -5 52 5 2 4 7 -3 11 -11 7 -39 72 -40 92 0 3 8 9 18
11 24 7 42 8 42 3z m540 -26 c0 -32 -55 -42 -63 -10 -4 14 2 21 22 28 31 11
41 7 41 -18z m-377 1 c4 -15 -2 -22 -23 -30 -31 -10 -40 -6 -40 20 0 31 55 40
63 10z m151 -7 c4 -9 5 -18 4 -19 -2 -1 -12 -7 -23 -14 -18 -11 -18 -12 6 -7
21 5 28 1 32 -15 4 -15 -1 -23 -20 -30 -32 -12 -39 -7 -48 33 -4 18 -9 27 -12
20 -8 -21 -55 -35 -65 -20 -6 10 -8 9 -8 -3 0 -9 -10 -19 -22 -23 -33 -9 -35
-8 -41 15 -4 15 1 23 20 30 13 5 28 7 33 4 5 -3 10 -1 12 4 1 5 17 11 33 13
17 2 36 9 43 16 19 17 49 15 56 -4z m-221 -15 c4 -15 -1 -23 -20 -30 -13 -5
-29 -7 -34 -3 -16 9 -10 42 9 47 33 9 40 7 45 -14z m380 2 c4 -15 -2 -22 -23
-30 -31 -10 -40 -6 -40 20 0 31 55 40 63 10z m157 -18 c0 -19 -50 -29 -61 -12
-14 22 -11 27 19 37 27 9 42 1 42 -25z m388 15 c-4 -27 -56 -48 -69 -27 -13
22 -11 29 14 39 40 16 59 12 55 -12z m-1154 -4 c10 -26 7 -32 -21 -38 -17 -5
-29 -3 -34 6 -13 20 -11 28 14 38 31 12 34 12 41 -6z m539 -15 c4 -14 -1 -23
-16 -30 -21 -8 -21 -9 3 -6 19 1 26 -3 28 -19 2 -16 -4 -23 -24 -28 -31 -8
-32 -7 -37 22 -2 12 -6 25 -10 28 -13 14 -7 43 11 47 33 9 40 7 45 -14z m-603
-26 c0 -6 -19 -19 -42 -27 -39 -15 -26 -15 28 0 15 4 23 0 28 -12 8 -22 2 -27
-53 -44 -24 -8 -39 -16 -34 -17 6 -2 30 3 54 11 24 8 44 14 45 13 1 -1 5 -12
8 -24 5 -17 3 -23 -7 -23 -8 0 -30 -7 -48 -16 -24 -10 -27 -13 -9 -9 77 18 78
18 82 -1 3 -14 -7 -24 -37 -37 -32 -14 -34 -16 -10 -11 17 3 37 7 45 8 8 0 18
5 21 9 3 4 19 9 35 10 16 1 35 8 42 15 12 11 52 17 52 8 0 -2 3 -11 6 -19 7
-19 -52 -42 -60 -24 -7 14 2 -35 10 -56 6 -16 -39 -33 -56 -22 -6 4 -10 2 -10
-2 0 -5 -12 -14 -27 -21 l-28 -12 29 6 c18 3 32 0 37 -8 7 -10 9 -9 9 3 0 9
10 19 23 23 32 9 34 8 40 -14 4 -15 -1 -22 -21 -27 -15 -4 -30 -7 -34 -8 -13
0 -12 -9 1 -30 10 -16 11 -16 7 -2 -4 13 2 20 20 27 14 6 30 8 35 4 13 -8 11
-42 -3 -47 -7 -2 -5 -3 5 -1 13 2 19 -6 23 -26 6 -26 7 -27 41 -17 26 8 36 8
42 -2 6 -9 10 -7 14 8 3 12 1 21 -3 21 -9 0 -43 91 -36 97 2 2 16 5 32 6 36 3
44 -25 12 -41 -23 -12 -23 -12 3 -7 19 3 29 0 33 -11 10 -25 7 -32 -11 -37
-14 -4 -14 -5 3 -6 22 -1 42 -41 21 -41 -6 0 -8 -3 -4 -6 5 -6 39 4 119 32 35
13 37 12 43 -8 5 -13 2 -24 -6 -29 -20 -13 -47 -11 -51 3 -3 7 -7 2 -10 -10
-4 -12 -2 -22 3 -22 5 0 9 -4 9 -10 0 -5 -7 -10 -15 -10 -8 0 -15 5 -15 10 0
6 -11 8 -25 4 -39 -10 -95 4 -96 24 0 10 -3 12 -6 5 -7 -18 -27 -16 -96 9 -35
13 -62 29 -64 39 -3 10 -12 15 -21 12 -23 -6 -116 79 -149 134 -14 25 -29 59
-33 76 -4 18 -12 31 -19 29 -15 -3 -14 98 1 140 17 45 77 54 78 11z m758 14
c2 -11 -6 -21 -24 -27 -30 -12 -29 -12 -38 17 -5 16 -2 23 11 26 30 8 48 3 51
-16z m-448 -27 c0 -32 -55 -42 -63 -10 -4 14 2 21 22 28 31 11 41 7 41 -18z
m377 14 c4 -11 -1 -23 -13 -32 -18 -14 -18 -14 3 -9 27 6 44 -30 22 -44 -32
-20 -71 4 -53 32 3 5 1 9 -4 9 -5 0 -12 9 -15 21 -4 14 1 23 16 29 32 13 37
12 44 -6z m-224 -16 c8 -28 5 -31 -33 -32 -16 -1 -30 -4 -30 -8 0 -3 -13 -11
-30 -17 -16 -5 -30 -6 -30 -1 0 4 -3 15 -6 23 -3 10 5 18 25 25 23 8 31 8 31
0 0 -7 6 -5 13 4 11 14 30 25 48 27 4 1 9 -9 12 -21z m380 1 c4 -15 -1 -23
-20 -30 -20 -7 -29 -6 -35 3 -13 21 -9 36 10 41 33 9 40 7 45 -14z m-763 7 c0
-2 3 -11 6 -19 3 -10 -5 -18 -25 -25 -26 -9 -31 -8 -37 10 -4 13 -1 24 7 29
14 9 49 12 49 5z m694 -22 c10 -26 7 -32 -21 -38 -17 -5 -29 -3 -34 6 -13 20
-11 28 14 38 31 12 34 12 41 -6z m376 12 c0 -2 3 -11 6 -20 8 -21 -45 -43 -58
-24 -13 21 -9 36 10 41 24 7 42 8 42 3z m-601 -28 c6 -17 4 -25 -8 -30 -29
-12 -49 -8 -54 12 -4 17 9 28 51 39 1 1 6 -9 11 -21z m-221 -21 c2 -11 -6 -21
-24 -27 -30 -12 -29 -12 -38 17 -5 16 -2 23 11 26 30 8 48 3 51 -16z m535 -7
c3 -11 0 -20 -6 -20 -7 0 -22 -3 -33 -6 -16 -4 -23 0 -27 15 -4 15 2 22 22 29
31 11 37 9 44 -18z m-760 -1 c4 -15 -1 -23 -20 -30 -13 -5 -29 -7 -34 -3 -16
9 -10 42 9 47 33 9 40 7 45 -14z m380 2 c4 -15 -2 -22 -23 -30 -31 -10 -40 -6
-40 20 0 31 55 40 63 10z m531 3 c10 -26 7 -32 -21 -38 -17 -5 -29 -3 -34 6
-13 20 -11 28 14 38 31 12 34 12 41 -6z m-380 -20 c0 -11 6 -26 13 -33 10 -9
13 -9 13 3 0 19 51 31 61 14 17 -26 7 -37 -35 -40 -28 -3 -32 -14 -15 -38 9
-13 10 -13 6 2 -5 13 7 21 55 37 64 22 78 20 78 -7 0 -13 -23 -24 -88 -44 -48
-15 -90 -27 -95 -27 -4 -1 -23 -7 -42 -15 -32 -14 -34 -13 -41 6 -10 31 47 56
59 26 3 -8 6 -6 6 5 1 10 11 22 24 28 21 9 20 9 -4 4 -19 -3 -29 0 -33 11 -9
23 -7 32 7 37 6 2 5 3 -5 2 -20 -3 -33 36 -15 47 22 15 52 4 51 -18z m-221 -5
c4 -15 -1 -23 -20 -30 -13 -5 -29 -7 -34 -3 -16 9 -10 42 9 47 33 9 40 7 45
-14z m380 2 c4 -15 -2 -22 -24 -30 -24 -8 -29 -7 -35 11 -4 13 -1 24 7 29 23
15 46 10 52 -10z m157 -18 c0 -19 -50 -29 -61 -12 -14 22 -11 27 19 37 27 9
42 1 42 -25z m-765 6 c8 -25 7 -26 -26 -34 -21 -5 -27 -2 -32 15 -4 15 0 24
16 30 32 13 35 12 42 -11z m383 -2 c2 -11 -6 -21 -24 -27 -30 -12 -29 -12 -38
17 -5 16 -2 23 11 26 30 8 48 3 51 -16z m-216 -35 l15 -49 -28 -10 c-15 -6
-30 -8 -33 -5 -13 13 -4 40 17 51 21 11 21 11 -4 6 -24 -4 -39 8 -39 31 0 4
38 22 51 23 3 1 12 -21 21 -47z m-232 8 c0 -32 -55 -42 -63 -10 -4 14 2 21 22
28 31 11 41 7 41 -18z m378 2 c2 -12 0 -22 -5 -22 -4 0 -18 -3 -29 -6 -31 -8
-41 34 -11 46 30 12 41 7 45 -18z m380 5 c2 -11 -6 -21 -24 -27 -30 -12 -29
-12 -38 17 -5 16 -2 23 11 26 30 8 48 3 51 -16z m156 -3 c3 -9 4 -20 0 -25 -3
-5 -1 -9 4 -9 5 0 12 -9 15 -21 4 -15 -1 -23 -20 -30 -13 -5 -29 -7 -34 -3
-13 8 -11 42 4 47 6 2 4 3 -5 2 -22 -4 -35 34 -17 46 22 14 46 10 53 -7z
m-604 -23 c0 -11 -10 -21 -22 -25 -33 -8 -35 -8 -41 14 -4 14 2 21 22 28 31
11 41 7 41 -17z m154 3 c10 -26 7 -31 -21 -37 -43 -8 -59 27 -20 43 31 12 34
12 41 -6z m390 -31 c9 -25 14 -48 12 -50 -2 -2 -16 -5 -32 -6 -37 -3 -46 29
-12 43 22 10 22 10 -3 5 -19 -3 -29 0 -33 11 -10 25 -7 32 12 37 35 9 40 6 56
-40z m-454 -10 c0 -19 -50 -29 -61 -12 -14 22 -11 27 19 37 27 9 42 1 42 -25z
m374 21 c10 -26 7 -32 -21 -38 -17 -5 -29 -3 -34 6 -13 20 -11 28 14 38 31 12
34 12 41 -6z m-603 -19 c3 -28 4 -33 12 -41 16 -16 6 -42 -19 -48 -31 -8 -32
-7 -37 22 -2 12 -6 25 -10 28 -13 14 -7 43 11 47 33 9 42 7 43 -8z m539 -21
c0 -18 -51 -28 -61 -12 -14 21 -11 26 19 36 27 9 42 1 42 -24z m-382 3 c2 -10
-6 -21 -20 -27 -22 -10 -22 -10 3 -5 21 4 28 0 32 -17 7 -26 9 -25 -24 -33
-25 -6 -28 -3 -43 41 -19 58 -20 52 2 57 29 8 47 3 50 -16z m-225 -8 c4 -15
-1 -23 -20 -30 -13 -5 -29 -7 -34 -3 -16 9 -10 42 9 47 33 9 40 7 45 -14z
m155 -17 c2 -14 -2 -22 -11 -22 -9 0 -22 -3 -30 -6 -9 -3 -16 3 -20 16 -4 15
0 24 16 30 30 12 41 7 45 -18z m380 7 c1 -9 -7 -21 -20 -27 -23 -12 -22 -12 4
-7 21 4 28 1 33 -16 8 -24 8 -24 -27 -33 -24 -5 -27 -2 -42 41 -19 56 -20 51
2 56 28 8 47 3 50 -14z m-224 -5 c9 -23 8 -24 -21 -35 -20 -7 -28 -6 -35 3
-14 22 -9 36 15 41 12 2 25 5 28 6 4 0 10 -6 13 -15z m376 12 c0 -2 3 -11 6
-19 3 -10 -5 -18 -25 -25 -26 -9 -31 -8 -37 10 -4 13 -1 24 7 29 14 9 49 12
49 5z m-222 -34 c2 -14 -2 -22 -11 -22 -9 0 -22 -3 -30 -6 -10 -3 -17 2 -20
13 -4 16 -5 15 -6 -3 -1 -17 -17 -25 -91 -48 -49 -16 -93 -28 -97 -28 -4 1 -9
10 -11 21 -4 26 45 42 60 20 8 -11 9 -10 4 3 -4 15 11 23 87 47 51 16 97 28
102 27 6 -1 11 -12 13 -24z m152 14 c0 -2 3 -11 6 -20 4 -11 -2 -19 -17 -26
-24 -10 -23 -10 2 -5 21 4 28 0 32 -17 7 -27 6 -28 -27 -31 -24 -2 -29 4 -42
38 -18 51 -17 53 4 58 24 7 42 8 42 3z m-601 -28 c6 -17 4 -25 -8 -30 -29 -12
-49 -8 -54 12 -4 17 9 28 51 39 1 1 6 -9 11 -21z m764 3 c4 -15 -2 -22 -23
-30 -31 -10 -40 -6 -40 20 0 31 55 40 63 10z m-603 -27 c0 -18 -51 -28 -61
-12 -14 21 -11 26 19 36 27 9 42 1 42 -24z m533 5 c4 -15 -1 -23 -20 -30 -13
-5 -29 -7 -34 -3 -16 9 -10 42 9 47 33 9 40 7 45 -14z m-223 -25 c0 -18 -51
-28 -61 -12 -13 19 -6 32 22 38 24 6 39 -4 39 -26z m-70 -21 c0 -19 -50 -29
-61 -12 -7 11 -9 10 -9 -4 0 -10 -12 -22 -26 -27 -33 -13 -32 -13 -37 13 -4
20 -4 20 -6 -4 -1 -23 -8 -28 -61 -42 -74 -21 -70 -21 -70 3 0 10 -5 31 -12
45 -13 29 -12 31 24 40 21 5 27 3 30 -12 2 -10 -5 -23 -17 -31 -20 -13 -20
-13 3 -9 14 3 26 -1 32 -11 9 -15 10 -15 8 2 -3 16 13 24 92 51 93 31 109 30
110 -2z m-382 4 c2 -11 -6 -21 -24 -27 -30 -12 -29 -12 -38 17 -6 17 -2 22 16
26 33 6 43 3 46 -16z m536 -4 c7 -18 -9 -33 -37 -33 -23 0 -34 29 -16 41 22
14 46 10 53 -8z m-74 -7 c0 -2 3 -11 6 -19 3 -10 -5 -18 -25 -25 -24 -8 -31
-8 -35 5 -10 24 -7 31 12 36 24 7 42 8 42 3z m-446 -32 c10 -26 7 -32 -21 -38
-17 -5 -29 -3 -34 6 -13 20 -11 28 14 38 31 12 34 12 41 -6z m376 12 c0 -2 3
-11 6 -20 8 -21 -45 -43 -58 -24 -13 21 -9 36 10 41 24 7 42 8 42 3z m165 -37
c5 -22 3 -34 -6 -40 -24 -15 -47 -10 -53 14 -9 35 -7 45 12 50 35 9 41 6 47
-24z m-231 5 c10 -26 7 -32 -21 -38 -17 -5 -29 -3 -34 6 -13 20 -11 28 14 38
31 12 34 12 41 -6z m163 -28 c9 -28 8 -36 -4 -40 -30 -12 -51 -6 -57 17 -10
37 -7 45 17 50 12 2 25 5 28 6 3 0 10 -14 16 -33z m-67 -37 c0 -10 -11 -20
-26 -23 -31 -8 -30 -9 -39 26 -6 23 -3 29 16 37 26 10 49 -8 49 -40z m-75 0
c9 -29 4 -31 -70 -36 -53 -4 -65 -2 -65 10 0 14 47 33 57 23 3 -3 12 1 20 9
21 21 51 18 58 -6z"/>
<path d="M1721 658 c-1 -10 -9 -18 -18 -18 -10 0 -25 -5 -33 -10 -11 -7 -3 -9
27 -7 24 1 43 6 43 10 0 4 10 12 23 18 20 9 20 9 -5 4 -16 -3 -28 0 -31 8 -3
7 -6 5 -6 -5z"/>
<path d="M2140 1439 c-79 -21 -121 -42 -141 -70 -12 -17 -16 -29 -9 -29 23 0
81 33 91 52 7 13 16 17 30 13 20 -7 83 17 94 35 7 12 -18 11 -65 -1z"/>
<path d="M1708 1123 c-8 -10 -6 -13 5 -13 8 0 18 -6 20 -12 4 -9 6 -7 6 3 1 9
11 21 24 26 20 9 19 10 -11 9 -19 -1 -38 -7 -44 -13z"/>
<path d="M1415 775 c-64 -66 -185 -165 -203 -165 -4 0 -13 -9 -20 -21 -13 -21
-12 -21 28 2 91 51 235 181 274 247 18 30 -14 4 -79 -63z"/>
<path d="M983 562 c-9 -6 -7 -22 8 -66 10 -33 21 -61 23 -63 2 -2 15 1 29 6
l25 10 -21 60 c-20 60 -35 72 -64 53z"/>
<path d="M1203 543 c-19 -7 -16 -23 5 -24 10 0 12 -3 5 -6 -25 -10 -12 -21 15
-14 15 4 33 6 40 4 15 -6 62 23 62 37 0 10 -104 13 -127 3z"/>
<path d="M830 510 c-47 -15 -179 -59 -295 -96 -116 -37 -214 -71 -219 -76 -14
-11 28 -10 56 2 13 5 143 48 291 96 147 47 270 90 273 95 8 14 -15 10 -106
-21z"/>
<path d="M273 329 c-15 -15 23 -129 43 -129 11 0 12 4 4 18 -6 9 -16 41 -23
69 -9 39 -16 50 -24 42z"/>

</g>
</svg>
